<?xml version="1.0" encoding="iso-8859-1"?>
<!-- Generator: Adobe Illustrator 19.0.0, SVG Export Plug-In . SVG Version: 6.00 Build 0)  -->
<svg version="1.1" id="Layer_1" xmlns="http://www.w3.org/2000/svg" xmlns:xlink="http://www.w3.org/1999/xlink" x="0px" y="0px"
	 viewBox="0 0 512 512" style="enable-background:new 0 0 512 512;" xml:space="preserve">
<path style="fill:#EFEFEF;" d="M500.989,331.04v13.29c0,20.622-16.714,37.337-37.326,37.337H48.337
	c-20.612,0-37.326-16.715-37.326-37.337v-13.29H500.989z"/>
<path style="fill:#FF7D46;" d="M500.989,68.566V331.04H11.011V68.566c0-20.612,16.714-37.326,37.326-37.326h415.326
	C484.275,31.239,500.989,47.955,500.989,68.566z"/>
<path style="fill:#D1D5D8;" d="M333.076,480.762c-51.384,0-102.767,0-154.151,0c12.022-32.827,17.426-66.269,17.734-99.097
	c39.561,0,79.121,0,118.683,0C315.651,414.493,321.055,447.934,333.076,480.762z"/>
<g>
	<path style="fill:#231F20;" d="M390.883,69.163c-6.081,0-11.011,4.931-11.011,11.011v0.524c0,6.08,4.93,11.011,11.011,11.011
		c6.081,0,11.011-4.931,11.011-11.011v-0.524C401.894,74.094,396.964,69.163,390.883,69.163z"/>
	<path style="fill:#231F20;" d="M463.663,20.228H48.337C21.683,20.228,0,41.912,0,68.566V344.33
		c0,26.659,21.683,48.348,48.337,48.348h136.994c-1.233,26.663-6.005,52.508-14.227,77.072h-33.468
		c-6.081,0-11.011,4.931-11.011,11.011s4.93,11.011,11.011,11.011h236.731c6.081,0,11.011-4.931,11.011-11.011
		s-4.93-11.011-11.011-11.011h-33.468c-8.221-24.565-12.993-50.411-14.227-77.072h136.991c26.654,0,48.337-21.689,48.337-48.348
		V68.566C512,41.912,490.317,20.228,463.663,20.228z M194.244,469.751c7.593-24.705,11.997-50.529,13.14-77.072h97.233
		c1.143,26.541,5.548,52.367,13.141,77.072H194.244z M489.979,344.331c0,14.518-11.805,26.327-26.316,26.327H48.337
		c-14.511,0-26.316-11.81-26.316-26.327v-2.279h467.957V344.331z M489.979,320.029H22.022V68.566
		c0-14.511,11.805-26.316,26.316-26.316h415.326c14.511,0,26.316,11.806,26.316,26.316V320.029z"/>
	<path style="fill:#231F20;" d="M121.119,218.91c-6.081,0-11.011,4.931-11.011,11.011v53.953c0,6.08,4.93,11.011,11.011,11.011
		c6.081,0,11.011-4.931,11.011-11.011V229.92C132.13,223.84,127.201,218.91,121.119,218.91z"/>
	<path style="fill:#231F20;" d="M166.08,121.465c-6.081,0-11.011,4.931-11.011,11.011v151.398c0,6.08,4.93,11.011,11.011,11.011
		s11.011-4.931,11.011-11.011V132.475C177.09,126.395,172.161,121.465,166.08,121.465z"/>
	<path style="fill:#231F20;" d="M211.04,174.867c-6.081,0-11.011,4.931-11.011,11.011v97.996c0,6.08,4.93,11.011,11.011,11.011
		c6.081,0,11.011-4.931,11.011-11.011v-97.996C222.051,179.797,217.121,174.867,211.04,174.867z"/>
	<path style="fill:#231F20;" d="M256.001,232.877c-6.081,0-11.011,4.931-11.011,11.011v39.986c0,6.08,4.93,11.011,11.011,11.011
		c6.081,0,11.011-4.931,11.011-11.011v-39.986C267.012,237.807,262.082,232.877,256.001,232.877z"/>
	<path style="fill:#231F20;" d="M300.961,115.409c-6.081,0-11.011,4.931-11.011,11.011v157.454c0,6.08,4.929,11.011,11.011,11.011
		c6.081,0,11.011-4.931,11.011-11.011V126.419C311.972,120.339,307.043,115.409,300.961,115.409z"/>
	<path style="fill:#231F20;" d="M345.922,142.018c-6.081,0-11.011,4.931-11.011,11.011v130.844c0,6.08,4.93,11.011,11.011,11.011
		c6.081,0,11.011-4.931,11.011-11.011V153.029C356.932,146.949,352.003,142.018,345.922,142.018z"/>
	<path style="fill:#231F20;" d="M390.883,110.225c-6.081,0-11.011,4.931-11.011,11.011v162.638c0,6.08,4.93,11.011,11.011,11.011
		c6.081,0,11.011-4.931,11.011-11.011V121.236C401.894,115.155,396.964,110.225,390.883,110.225z"/>
</g>
<g>
</g>
<g>
</g>
<g>
</g>
<g>
</g>
<g>
</g>
<g>
</g>
<g>
</g>
<g>
</g>
<g>
</g>
<g>
</g>
<g>
</g>
<g>
</g>
<g>
</g>
<g>
</g>
<g>
</g>
</svg>
